<svg preserveAspectRatio="none" overflow="visible" style="display: block;" width="41.1416" height="13.3233" viewBox="0 0 41.1416 13.3233" fill="none" xmlns="http://www.w3.org/2000/svg">
<g id="Group">
<path id="Vector" d="M0 9.52367V2.89264H2.18174V9.19885C2.18174 10.0568 2.35334 10.6513 2.69653 10.9945C3.03973 11.3377 3.54839 11.5032 4.22253 11.5032C4.93956 11.5032 5.46048 11.3193 5.78529 10.9455C6.1101 10.5716 6.26944 9.9833 6.26944 9.1866V2.89264H8.45118V9.54818C8.45118 10.2591 8.29184 10.9026 7.97929 11.4725C7.66674 12.0425 7.18871 12.496 6.55135 12.8269C5.91399 13.1579 5.11729 13.3233 4.16124 13.3233C2.80072 13.3233 1.76501 12.974 1.06023 12.2815C0.349326 11.589 0 10.6697 0 9.52367ZM1.81403 0.913144C1.81403 0.594463 1.90596 0.367709 2.09595 0.220625C2.28593 0.0735416 2.51268 0 2.78233 0C3.05199 0 3.27261 0.0735416 3.46872 0.220625C3.66484 0.367709 3.76289 0.600591 3.76289 0.913144C3.76289 1.2257 3.66484 1.44632 3.46872 1.59341C3.27261 1.74049 3.04586 1.81403 2.78233 1.81403C2.51881 1.81403 2.28593 1.74049 2.09595 1.59341C1.90596 1.44632 1.80791 1.21957 1.80791 0.913144H1.81403ZM4.63314 0.913144C4.63314 0.594463 4.73119 0.367709 4.9273 0.220625C5.12341 0.0735416 5.3563 0 5.63821 0C5.92012 0 6.14074 0.0735416 6.34298 0.220625C6.54522 0.367709 6.64328 0.600591 6.64328 0.913144C6.64328 1.2257 6.54522 1.44632 6.34298 1.59341C6.14687 1.74049 5.90786 1.81403 5.63821 1.81403C5.36856 1.81403 5.12341 1.74049 4.9273 1.59341C4.73119 1.44632 4.63314 1.21957 4.63314 0.913144Z" fill="#031C67"/>
<path id="Vector_2" d="M10.9638 13.182V2.89225H14.169C15.5357 2.89225 16.5714 3.08223 17.2823 3.46833C17.9932 3.85442 18.3425 4.52855 18.3425 5.49685C18.3425 6.08519 18.2077 6.5816 17.9319 6.97995C17.6561 7.38443 17.2639 7.62957 16.7553 7.72149V7.78891C17.0862 7.86245 17.3926 7.98502 17.6745 8.15662C17.9503 8.32209 18.1709 8.57335 18.3364 8.89816C18.5019 9.22297 18.5815 9.65197 18.5815 10.1913C18.5815 11.1289 18.2445 11.8582 17.5642 12.3914C16.8901 12.9184 15.9708 13.182 14.8064 13.182H10.97H10.9638ZM13.1456 6.96769H14.4142C15.0454 6.96769 15.4867 6.86964 15.7318 6.67352C15.9769 6.47741 16.0995 6.18324 16.0995 5.78489C16.0995 5.38654 15.9586 5.11076 15.6705 4.93916C15.3825 4.76756 14.929 4.68177 14.2977 4.68177H13.1517V6.96769H13.1456ZM13.1456 11.3679H14.5674C15.217 11.3679 15.6766 11.2392 15.934 10.988C16.1976 10.7306 16.3263 10.3935 16.3263 9.97678C16.3263 9.59681 16.1976 9.28426 15.934 9.05138C15.6705 8.81849 15.1925 8.70205 14.5 8.70205H13.1456V11.3679Z" fill="#031C67"/>
<path id="Vector_3" d="M20.6526 13.182V2.89225H26.5788V4.68177H22.8343V6.94318H26.3153V8.73269H22.8343V11.3741H26.5788V13.1881H20.6526V13.182Z" fill="#031C67"/>
<path id="Vector_4" d="M28.7179 13.182V2.89225H31.7086C33.1059 2.89225 34.1416 3.14964 34.8096 3.65831C35.4776 4.16697 35.8086 4.93916 35.8086 5.97488C35.8086 6.44677 35.7228 6.85738 35.545 7.2067C35.3673 7.56215 35.1344 7.85632 34.8464 8.10146C34.5583 8.3466 34.2458 8.54271 33.9149 8.70205L36.9362 13.182H34.5154L32.0702 9.24136H30.9058V13.182H28.724H28.7179ZM30.8996 7.4641H31.6044C32.3276 7.4641 32.8424 7.34766 33.1549 7.10252C33.4675 6.86351 33.6207 6.50805 33.6207 6.03003C33.6207 5.55201 33.4552 5.19656 33.1182 4.98819C32.7811 4.77982 32.2602 4.67564 31.5615 4.67564H30.8996V7.45797V7.4641Z" fill="#031C67"/>
<path id="Vector_5" d="M37.3603 10.1946V8.41126H41.1416V10.1946H37.3603Z" fill="#031C67"/>
</g>
</svg>
